<?xml version="1.0" standalone="no"?>
<!DOCTYPE svg PUBLIC "-//W3C//DTD SVG 20010904//EN"
 "http://www.w3.org/TR/2001/REC-SVG-20010904/DTD/svg10.dtd">
<svg version="1.0" xmlns="http://www.w3.org/2000/svg"
 width="512.000000pt" height="512.000000pt" viewBox="0 0 512.000000 512.000000"
 preserveAspectRatio="xMidYMid meet">
<metadata>
Created by potrace 1.11, written by Peter Selinger 2001-2013
</metadata>
<g transform="translate(0.000000,512.000000) scale(0.100000,-0.100000)"
fill="#000000" stroke="none">
<path d="M1230 5116 c-3 -2 -43 -6 -89 -10 -72 -5 -193 -22 -296 -41 -62 -12
-212 -67 -275 -102 -196 -106 -369 -296 -459 -502 -49 -109 -79 -237 -99 -411
-4 -36 -7 -706 -7 -1490 0 -1334 1 -1432 18 -1530 89 -513 289 -790 672 -933
153 -57 178 -60 615 -84 185 -10 2273 -10 2485 0 384 18 445 25 570 64 300 95
535 318 658 624 32 81 73 242 84 329 10 83 11 2963 0 3050 -26 230 -108 441
-237 611 -177 231 -413 358 -775 415 -44 7 -2858 17 -2865 10z"/>
</g>
</svg>
