<!-- Generated by IcoMoon.io -->
<svg version="1.1" xmlns="http://www.w3.org/2000/svg" width="512" height="512" viewBox="0 0 512 512">
<title></title>
<g id="icomoon-ignore">
</g>
<path fill="#000" d="M256 0c-141.156 0-256 114.844-256 256s114.844 256 256 256 256-114.844 256-256-114.844-256-256-256zM256 490.667c-129.396 0-234.667-105.271-234.667-234.667s105.271-234.667 234.667-234.667 234.667 105.271 234.667 234.667-105.271 234.667-234.667 234.667z"></path>
<path fill="#000" d="M394.667 245.333h-128v-128c0-5.896-4.771-10.667-10.667-10.667s-10.667 4.771-10.667 10.667v128h-128c-5.896 0-10.667 4.771-10.667 10.667s4.771 10.667 10.667 10.667h128v128c0 5.896 4.771 10.667 10.667 10.667s10.667-4.771 10.667-10.667v-128h128c5.896 0 10.667-4.771 10.667-10.667s-4.771-10.667-10.667-10.667z"></path>
</svg>
