<svg width="512" height="512" viewBox="0 0 512 512" fill="none" xmlns="http://www.w3.org/2000/svg">
<g clip-path="url(#clip0)">
<g style="mix-blend-mode:lighten">
<path d="M384.001 480.001H352.001C352.001 462.327 337.674 448 320 448V406H191.999V448C174.325 448 159.998 462.327 159.998 480.001H127.998C110.325 480.001 95.9973 494.328 95.9973 512.001H127.998H159.998H352H384H416.001C416.002 494.327 401.675 480.001 384.001 480.001Z" fill="url(#paint0_linear)"/>
</g>
<path d="M224 416L249.74 467.441C252.32 472.598 259.68 472.598 262.26 467.441L288 416L279.75 406H233.25L224 416Z" fill="#F58649"/>
<path d="M266 459.969L262.26 467.439C259.68 472.599 252.32 472.599 249.74 467.439L224 415.999L233.25 405.999H253.25L244 415.999L266 459.969Z" fill="#F2722C"/>
<path d="M188.538 383.999L170.397 404.341C166.373 408.853 169.576 416 175.621 416H336.379C342.424 416 345.627 408.853 341.603 404.341L323.462 383.999L312.25 373.999H199.803L188.538 383.999Z" fill="#4F64DB"/>
<path d="M219.448 384L190.902 415.998H175.622C169.576 415.998 166.374 408.849 170.399 404.338L188.543 384H219.448Z" fill="#445AD1"/>
<path d="M385.713 378.934L331.844 351.999V225.092L386.602 278.915C392.514 284.725 395.843 292.667 395.843 300.956V372.672C395.844 377.876 390.367 381.261 385.713 378.934V378.934Z" fill="#061F61"/>
<path d="M126.289 378.934L180.158 351.999V225.092L125.4 278.915C119.488 284.725 116.159 292.667 116.159 300.956V372.672C116.158 377.876 121.634 381.261 126.289 378.934V378.934Z" fill="#061F61"/>
<path d="M352.005 226.915C352.005 258.8 347.967 290.478 340.034 320.725L331.844 352.002L322.834 358.165L317.667 376.165L195.046 376.371L187.666 359.165L180.156 352.002L171.966 320.725C168 305.602 165.012 290.118 163.003 274.439C161.004 258.749 159.995 242.852 159.995 226.916C159.995 174.777 170.781 124.072 190.778 79.5981C200.967 56.9547 213.535 45.9176 228.287 27.1473H283.712C298.464 45.9176 311.033 56.9537 321.221 79.5981C326.125 90.5082 330.483 101.799 334.254 113.389C345.865 149.043 352.005 187.573 352.005 226.915V226.915Z" fill="#EAF6FF"/>
<path d="M321.221 79.5941H190.78C200.97 56.9538 213.54 35.9135 228.29 17.1432L231.69 12.8132C242.44 -0.877032 258.561 -3.59707 271.451 4.65304C274.651 6.69307 277.641 9.42311 280.311 12.8132L283.711 17.1432C298.461 35.9135 311.031 56.9538 321.221 79.5941Z" fill="#49DBC9"/>
<path d="M190.779 79.5971C170.782 124.071 159.996 174.777 159.996 226.916C159.996 242.853 161.006 258.75 163.004 274.439C165.013 290.118 168.001 305.602 171.967 320.725L180.157 352.002L188.544 384H219.45L211.064 352.002L202.874 320.725C198.908 305.602 195.92 290.118 193.911 274.439C191.913 258.749 190.903 242.852 190.903 226.916C190.903 174.777 201.689 124.071 221.685 79.5971H190.779Z" fill="#D8ECFE"/>
<path d="M271.451 4.65304V4.66304C268.261 6.70307 265.261 9.42311 262.591 12.8132L259.191 17.1432C244.44 35.9135 231.87 56.9538 221.68 79.5941H190.78C200.97 56.9538 213.54 35.9135 228.29 17.1432L231.69 12.8132C242.44 -0.877032 258.561 -3.59707 271.451 4.65304V4.65304Z" fill="#41CFBE"/>
<path d="M331.844 352.002L323.468 384H188.543L180.156 352.002H331.844Z" fill="#49DBC9"/>
<path d="M219.448 384H188.542L180.156 352.002H211.062L219.448 384Z" fill="#41CFBE"/>
<path d="M256.001 287.996C291.347 287.996 320 259.342 320 223.996C320 188.65 291.347 159.996 256.001 159.996C220.654 159.996 192.001 188.65 192.001 223.996C192.001 259.342 220.654 287.996 256.001 287.996Z" fill="#F4628C"/>
<path d="M266.303 287.162C262.955 287.708 259.504 287.997 256.001 287.997C220.706 287.997 192.005 259.286 192.005 224.001C192.005 188.707 220.706 159.995 256.001 159.995C259.504 159.995 262.955 160.283 266.303 160.829C235.891 165.764 212.609 192.21 212.609 224.001C212.608 255.781 235.89 282.227 266.303 287.162Z" fill="#EA5E86"/>
<path d="M256 255.956C273.651 255.956 287.96 241.647 287.96 223.996C287.96 206.345 273.651 192.036 256 192.036C238.349 192.036 224.04 206.345 224.04 223.996C224.04 241.647 238.349 255.956 256 255.956Z" fill="#88B4F5"/>
<path d="M266.302 254.256C263.067 255.358 259.606 255.956 256 255.956C238.374 255.956 224.044 241.616 224.044 224C224.044 206.374 238.374 192.033 256 192.033C259.606 192.033 263.067 192.631 266.302 193.733C253.713 198.029 244.647 209.979 244.647 224C244.647 238.01 253.713 249.961 266.302 254.256V254.256Z" fill="#6EA2F2"/>
</g>
<defs>
<linearGradient id="paint0_linear" x1="255.999" y1="406" x2="255.999" y2="512.001" gradientUnits="userSpaceOnUse">
<stop offset="0.466667" stop-color="#7E77D5"/>
<stop offset="1" stop-color="#6238B9"/>
</linearGradient>
<clipPath id="clip0">
<rect width="512" height="512" fill="white"/>
</clipPath>
</defs>
</svg>
