<!-- Generated by IcoMoon.io -->
<svg version="1.1"
  xmlns="http://www.w3.org/2000/svg" width="512" height="512" viewBox="0 0 512 512" fill="#6238b9">
  <title></title>
  <g id="icomoon-ignore">
  </g>
  <path d="M256 0c-141.155 0-256 114.835-256 256s114.846 256 256 256 256-114.836 256-256-114.846-256-256-256zM256 492.308c-130.294 0-236.308-106.014-236.308-236.308s106.013-236.308 236.308-236.308 236.308 106.013 236.308 236.308-106.014 236.308-236.308 236.308z"></path>
  <path d="M376.635 151l-151.326 170.24-91.165-72.93c-4.234-3.397-10.447-2.698-13.834 1.536-3.397 4.254-2.707 10.447 1.536 13.844l98.462 78.769c1.811 1.447 3.988 2.156 6.154 2.156 2.718 0 5.425-1.123 7.365-3.308l157.538-177.231c3.613-4.056 3.249-10.289-0.817-13.893-4.077-3.624-10.289-3.259-13.913 0.817z"></path>
</svg>
