<!-- Generated by IcoMoon.io -->
<svg version="1.1" xmlns="http://www.w3.org/2000/svg" width="512" height="512" viewBox="0 0 512 512">
<title></title>
<g id="icomoon-ignore">
</g>
<path d="M147.462 188.984h176.586c4.144 0 7.5-3.356 7.5-7.5 0-4.141-3.356-7.5-7.5-7.5h-176.586c-4.144 0-7.5 3.359-7.5 7.5 0 4.144 3.356 7.5 7.5 7.5z"></path>
<path d="M147.462 224.219h176.586c4.144 0 7.5-3.359 7.5-7.5 0-4.144-3.356-7.5-7.5-7.5h-176.586c-4.144 0-7.5 3.356-7.5 7.5 0 4.141 3.356 7.5 7.5 7.5z"></path>
<path d="M194.13 153.754h93.336c4.144 0 7.5-3.359 7.5-7.504 0-4.141-3.356-7.5-7.5-7.5h-93.336c-4.144 0-7.5 3.359-7.5 7.5 0 4.144 3.356 7.504 7.5 7.504z"></path>
<path d="M287.466 314.918h-93.336c-4.144 0-7.5 3.36-7.5 7.5 0 4.144 3.356 7.5 7.5 7.5h93.336c4.144 0 7.5-3.356 7.5-7.5 0-4.14-3.36-7.5-7.5-7.5z"></path>
<path d="M147.462 259.453h176.586c4.144 0 7.5-3.36 7.5-7.5 0-4.144-3.356-7.5-7.5-7.5h-176.586c-4.144 0-7.5 3.356-7.5 7.5 0 4.14 3.356 7.5 7.5 7.5z"></path>
<path d="M331.548 287.183c0-4.14-3.356-7.5-7.5-7.5h-176.586c-4.144 0-7.5 3.36-7.5 7.5 0 4.144 3.356 7.504 7.5 7.504h176.586c4.144 0 7.5-3.36 7.5-7.504z"></path>
<path d="M383.599 77.528c-17.238 0-31.265-14.028-31.265-31.266 0-0.832 0.035-1.672 0.106-2.5 0.504-6.168-4.414-11.461-10.613-11.461h-202.054c-6.215 0-11.117 5.309-10.613 11.461 1.484 18.125-12.922 33.766-31.18 33.766-0.008 0-0.011 0-0.016 0-5.918 0-10.695 4.754-10.695 10.644v292.328c0 5.883 4.761 10.644 10.722 10.644h0.008c17.239 0 31.265 14.027 31.265 31.262 0 0.824-0.035 1.668-0.106 2.5-0.504 6.18 4.422 11.461 10.613 11.461h193.973v17.305h-75.445c-4.141 0-7.5 3.356-7.5 7.5 0 4.14 3.359 7.5 7.5 7.5h75.445v30.672c0 10.129 11.297 16.071 19.637 10.527 19.367-12.867 14.578-9.688 33.926-22.543 11.121 7.387 22.558 14.988 33.93 22.543 8.387 5.574 19.637-0.453 19.637-10.527v-105.356c10.082-12.094 16.16-27.637 16.16-44.578 0-23.867-12.063-44.965-30.402-57.539v-58.742c0-4.144-3.356-7.5-7.5-7.5-4.14 0-7.5 3.356-7.5 7.5v50.941c-5.476-2.047-11.277-3.426-17.301-4.031v-191.867c0-5.903-4.789-10.644-10.692-10.644h-0.015zM348.743 494.941v-87.457c3.332 2.211 7.328 4.383 11.11 6.008v74.067zM380.31 473.964l-5.453 3.625v-59.57c7.985 1.445 16.66 1.492 24.902 0v59.57l-5.453-3.625c-4.25-2.824-9.742-2.824-13.996 0zM425.868 494.941l-11.11-7.383v-74.067c3.672-1.578 7.672-3.726 11.11-6.008zM442.029 349.41c0 31.426-26.676 56.856-58.692 54.558-28.695-2.098-50.754-26.019-50.754-54.558 0-29.938 24.356-54.484 54.301-54.711 0.008 0 0.019-0.004 0.031-0.004 0.129 0 0.258-0.008 0.39-0.008 30.176 0 54.722 24.547 54.722 54.722zM144.251 421.367c-0.524-23.586-18.789-42.879-41.981-45.024v-284.012c23.176-2.129 41.457-21.43 41.981-45.028h193.094c0.524 23.602 18.805 42.898 41.985 45.028v187.82c-0.137 0.015-0.265 0.039-0.399 0.055-34.824 4.192-61.347 33.969-61.347 69.203 0 16.008 5.504 31.863 16.16 44.637v27.32z"></path>
<path d="M387.306 307.609c-23.047 0-41.797 18.75-41.797 41.801 0 23.047 18.75 41.797 41.797 41.797 23.051 0 41.801-18.75 41.801-41.797 0-23.051-18.75-41.801-41.801-41.801zM387.306 376.207c-14.774 0-26.797-12.019-26.797-26.797s12.024-26.801 26.797-26.801c14.777 0 26.801 12.024 26.801 26.801s-12.024 26.797-26.801 26.797z"></path>
<path d="M54.966 35.778v397.113c0 19.731 16.051 35.781 35.778 35.781h132.554c4.141 0 7.5-3.36 7.5-7.5 0-4.144-3.359-7.5-7.5-7.5h-132.554c-11.457 0-20.778-9.32-20.778-20.781v-397.113c0-11.457 9.32-20.777 20.778-20.777h300.109c11.457 0 20.777 9.32 20.777 20.777v162.347c0 4.144 3.356 7.5 7.5 7.5s7.5-3.356 7.5-7.5v-162.347c0-19.727-16.051-35.778-35.777-35.778h-300.109c-19.727 0-35.778 16.051-35.778 35.778z"></path>
</svg>
