<!-- Generated by IcoMoon.io -->
<svg version="1.1" xmlns="http://www.w3.org/2000/svg" width="512" height="512" viewBox="0 0 512 512">
<title></title>
<g id="icomoon-ignore">
</g>
<path fill="#000" d="M256 0c-141.156 0-256 114.833-256 256s114.844 256 256 256 256-114.833 256-256-114.844-256-256-256zM256 490.667c-129.396 0-234.667-105.271-234.667-234.667s105.271-234.667 234.667-234.667 234.667 105.271 234.667 234.667-105.271 234.667-234.667 234.667z"></path>
<path fill="#000" d="M365.792 205.792l-109.792 109.791-109.792-109.791c-4.167-4.167-10.917-4.167-15.083 0-4.167 4.167-4.167 10.917 0 15.083l117.333 117.333c2.083 2.083 4.813 3.125 7.542 3.125s5.458-1.042 7.542-3.125l117.333-117.333c4.167-4.167 4.167-10.917 0-15.083-4.167-4.167-10.917-4.167-15.083 0z"></path>
</svg>
