<!-- Generated by IcoMoon.io -->
<svg version="1.1" xmlns="http://www.w3.org/2000/svg" width="512" height="512" viewBox="0 0 512 512">
<title></title>
<g id="icomoon-ignore">
</g>
<path fill="#000" d="M512 256c0-141.156-114.833-256-256-256s-256 114.844-256 256 114.833 256 256 256 256-114.844 256-256zM21.333 256c0-129.396 105.271-234.667 234.667-234.667s234.667 105.271 234.667 234.667-105.271 234.667-234.667 234.667-234.667-105.271-234.667-234.667z"></path>
<path fill="#000" d="M306.208 365.792l-109.791-109.792 109.791-109.792c4.167-4.167 4.167-10.917 0-15.083-4.167-4.167-10.917-4.167-15.083 0l-117.333 117.333c-2.083 2.083-3.125 4.813-3.125 7.542s1.042 5.458 3.125 7.542l117.333 117.333c4.167 4.167 10.917 4.167 15.083 0s4.167-10.917 0-15.083z"></path>
</svg>
