<!-- Generated by IcoMoon.io -->
<svg version="1.1" xmlns="http://www.w3.org/2000/svg" width="512" height="512" viewBox="0 0 512 512">
<title></title>
<g id="icomoon-ignore">
</g>
<path fill="#000" d="M256 512c141.156 0 256-114.833 256-256s-114.844-256-256-256-256 114.833-256 256 114.844 256 256 256zM256 21.333c129.396 0 234.667 105.271 234.667 234.667s-105.271 234.667-234.667 234.667-234.667-105.271-234.667-234.667 105.271-234.667 234.667-234.667z"></path>
<path fill="#000" d="M146.208 306.208l109.792-109.791 109.792 109.791c4.167 4.167 10.917 4.167 15.083 0s4.167-10.917 0-15.083l-117.333-117.333c-2.083-2.083-4.813-3.125-7.542-3.125s-5.458 1.042-7.542 3.125l-117.333 117.333c-4.167 4.167-4.167 10.917 0 15.083s10.917 4.167 15.083 0z"></path>
</svg>
