<!-- Generated by IcoMoon.io -->
<svg version="1.1" xmlns="http://www.w3.org/2000/svg" width="512" height="512" viewBox="0 0 512 512">
<title></title>
<g id="icomoon-ignore">
</g>
<path d="M256 0c-141.383 0-256 114.617-256 256s114.617 256 256 256 256-114.616 256-256c-0.159-141.316-114.683-255.841-256-256zM256 494.933c-131.958 0-238.934-106.975-238.934-238.934s106.975-238.934 238.934-238.934 238.933 106.975 238.933 238.934c-0.15 131.896-107.038 238.784-238.934 238.934z"></path>
<path d="M355.9 156.1c-3.334-3.329-8.733-3.329-12.067 0l-87.834 87.833-87.834-87.834c-3.35-3.233-8.671-3.188-11.963 0.104s-3.338 8.613-0.104 11.963l87.834 87.834-87.834 87.834c-2.216 2.142-3.108 5.317-2.325 8.3 0.779 2.983 3.108 5.313 6.091 6.091 2.983 0.784 6.159-0.108 8.3-2.325l87.834-87.834 87.834 87.834c3.35 3.233 8.671 3.188 11.962-0.104s3.337-8.613 0.104-11.962l-87.834-87.834 87.834-87.834c3.329-3.333 3.329-8.733 0-12.066z"></path>
</svg>
