<!-- Generated by IcoMoon.io -->
<svg version="1.1" xmlns="http://www.w3.org/2000/svg" width="512" height="512" viewBox="0 0 512 512">
<title></title>
<g id="icomoon-ignore">
</g>
<path d="M71.766 81.257c0 4.867-3.945 8.813-8.813 8.813-4.864 0-8.809-3.945-8.809-8.813s3.946-8.813 8.809-8.813c4.867 0 8.813 3.945 8.813 8.813z"></path>
<path d="M103.141 81.257c0 4.867-3.945 8.813-8.813 8.813-4.864 0-8.808-3.945-8.808-8.813s3.945-8.813 8.808-8.813c4.867 0 8.813 3.945 8.813 8.813z"></path>
<path d="M134.516 81.257c0 4.867-3.946 8.813-8.808 8.813-4.867 0-8.813-3.945-8.813-8.813s3.945-8.813 8.813-8.813c4.864 0 8.808 3.945 8.808 8.813z"></path>
<path d="M474.614 128.749h-16.258v-50.606c0-21.148-17.207-38.355-38.36-38.355h-381.637c-21.152 0-38.359 17.207-38.359 38.355v277.423c0 21.152 17.207 38.36 38.355 38.36h29.238v40.906c0 20.613 16.769 37.387 37.383 37.387h271.196c4.144 0 7.5-3.36 7.5-7.5 0-4.144-3.356-7.504-7.5-7.504h-271.196c-12.34 0-22.383-10.039-22.383-22.383v-40.906h337.407c21.149 0 38.356-17.207 38.356-38.36v-211.817h16.258c12.344 0 22.387 10.043 22.387 22.387v268.696c0 12.344-10.043 22.387-22.387 22.387h-63.609c-4.14 0-7.5 3.356-7.5 7.5s3.36 7.5 7.5 7.5h63.61c20.613 0 37.387-16.769 37.387-37.387v-268.696c0-20.613-16.774-37.387-37.387-37.387zM443.356 355.566c0 12.879-10.476 23.36-23.356 23.36h-381.646c-12.879 0-23.355-10.481-23.355-23.36v-232.84h428.356zM443.356 107.725h-428.356v-29.582c0-12.879 10.48-23.355 23.359-23.355h381.637c12.879 0 23.36 10.476 23.36 23.355z"></path>
<path d="M309.634 351.929h93.582c8.707 0 15.789-7.086 15.789-15.793v-160.883c0-8.707-7.082-15.789-15.789-15.789h-93.582c-8.707 0-15.793 7.082-15.793 15.789v46.75c0 4.144 3.36 7.5 7.504 7.5 4.14 0 7.5-3.356 7.5-7.5v-46.75c0-0.434 0.351-0.789 0.789-0.789h93.582c0.433 0 0.789 0.356 0.789 0.789v160.883c0 0.438-0.356 0.793-0.789 0.793h-93.582c-0.438 0-0.789-0.356-0.789-0.793v-79.051c0-4.144-3.36-7.5-7.5-7.5-4.144 0-7.504 3.356-7.504 7.5v79.051c0 8.707 7.086 15.793 15.793 15.793z"></path>
<path d="M241.614 286.034h19.559c4.14 0 7.5-3.36 7.5-7.5 0-4.144-3.36-7.5-7.5-7.5h-19.559c-4.141 0-7.5 3.356-7.5 7.5 0 4.14 3.359 7.5 7.5 7.5z"></path>
<path d="M54.145 286.034h139.278c4.144 0 7.5-3.36 7.5-7.5 0-4.144-3.356-7.5-7.5-7.5h-139.278c-4.145 0-7.5 3.356-7.5 7.5 0 4.14 3.355 7.5 7.5 7.5z"></path>
<path d="M120.075 336.929h-65.93c-4.145 0-7.5 3.356-7.5 7.5 0 4.14 3.355 7.5 7.5 7.5h65.93c4.141 0 7.5-3.36 7.5-7.5 0-4.144-3.359-7.5-7.5-7.5z"></path>
<path d="M184.38 336.929h-16.113c-4.144 0-7.5 3.356-7.5 7.5 0 4.14 3.356 7.5 7.5 7.5h16.113c4.141 0 7.5-3.36 7.5-7.5 0-4.144-3.359-7.5-7.5-7.5z"></path>
<path d="M261.173 303.98h-207.028c-4.145 0-7.5 3.356-7.5 7.5s3.355 7.5 7.5 7.5h207.028c4.14 0 7.5-3.356 7.5-7.5s-3.36-7.5-7.5-7.5z"></path>
<path d="M41.782 233.995c0-0.211 0.102-0.629 0.207-1.047l20.227-65.922c0.946-3.144 4.82-4.609 8.699-4.609 3.981 0 7.859 1.465 8.805 4.609l20.227 65.922c0.106 0.418 0.211 0.731 0.211 1.047 0 3.25-4.926 5.66-8.594 5.66-2.308 0-4.090-0.734-4.614-2.726l-3.981-13.938h-24l-3.984 13.938c-0.523 1.992-2.304 2.726-4.609 2.726-3.672 0-8.594-2.309-8.594-5.66zM80.031 212.3l-9.117-32.172-9.117 32.172z"></path>
<path d="M131.911 163.046c13.836 0 24.629 6.496 24.629 23.996v28.613c0 17.5-10.793 24-24.629 24h-18.547c-3.567 0-5.977-1.992-5.977-4.191v-68.226c0-2.203 2.41-4.191 5.977-4.191zM121.012 174.992v52.715h10.899c6.918 0 11.008-3.875 11.008-12.051v-28.613c0-8.172-4.090-12.051-11.008-12.051z"></path>
<path d="M199.93 219.218c0-15.719-33.641-10.899-33.641-35.739 0-15.613 13.414-20.957 25.465-20.957 6.188 0 19.914 1.465 19.914 8.383 0 2.41-1.676 7.231-5.449 7.231-3.25 0-5.66-3.981-14.465-3.981-7.543 0-11.84 3.039-11.84 8.071 0 12.992 33.641 8.488 33.641 35.629 0 14.988-10.481 22.742-24.941 22.742-13.731 0-24.211-6.914-24.211-12.992 0-2.938 2.726-7.34 5.976-7.34 4.293 0 7.125 8.071 17.813 8.071 6.289 0 11.738-2.828 11.738-9.117z"></path>
</svg>
