<!-- Generated by IcoMoon.io -->
<svg version="1.1" xmlns="http://www.w3.org/2000/svg" width="512" height="512" viewBox="0 0 512 512">
<title></title>
<g id="icomoon-ignore">
</g>
<path d="M86.497 25c-5.516 0-10 4.485-10 10s4.484 10 10 10 10-4.484 10-10-4.484-10-10-10z"></path>
<path d="M121.497 25c-5.516 0-10 4.485-10 10s4.484 10 10 10 10-4.484 10-10-4.484-10-10-10z"></path>
<path d="M156.497 25c-5.516 0-10 4.485-10 10s4.484 10 10 10 10-4.484 10-10-4.484-10-10-10z"></path>
<path d="M432.497 0h-353c-15.164 0-27.5 12.336-27.5 27.5v412.008c0 4.144 3.359 7.5 7.5 7.5s7.5-3.356 7.5-7.5v-200.508h126.289c3.097 8.731 11.434 15 21.211 15h83c9.777 0 18.113-6.269 21.211-15h126.289v245.5c0 6.894-5.606 12.5-12.5 12.5h-353c-6.894 0-12.5-5.606-12.5-12.5v-9.992c0-4.14-3.359-7.5-7.5-7.5s-7.5 3.36-7.5 7.5v9.992c0 15.164 12.336 27.5 27.5 27.5h353c15.164 0 27.5-12.336 27.5-27.5v-457c0-15.164-12.336-27.5-27.5-27.5zM297.497 239h-83c-4.137 0-7.5-3.363-7.5-7.5s3.363-7.5 7.5-7.5h83c4.137 0 7.5 3.363 7.5 7.5s-3.363 7.5-7.5 7.5zM444.997 224h-126.289c-3.098-8.731-11.433-15-21.211-15h-83c-9.778 0-18.113 6.269-21.211 15h-126.289v-154h350.5c4.14 0 7.5-3.356 7.5-7.5s-3.36-7.5-7.5-7.5h-350.5v-27.5c0-6.895 5.606-12.5 12.5-12.5h353c6.894 0 12.5 5.605 12.5 12.5z"></path>
<path d="M195.497 117c0-4.144-3.359-7.5-7.5-7.5h-56c-4.141 0-7.5 3.356-7.5 7.5s3.359 7.5 7.5 7.5h56c4.141 0 7.5-3.356 7.5-7.5z"></path>
<path d="M217.997 124.5h76c4.14 0 7.5-3.356 7.5-7.5s-3.36-7.5-7.5-7.5h-76c-4.141 0-7.5 3.356-7.5 7.5s3.359 7.5 7.5 7.5z"></path>
<path d="M379.997 109.5h-56c-4.14 0-7.5 3.356-7.5 7.5s3.36 7.5 7.5 7.5h56c4.14 0 7.5-3.356 7.5-7.5s-3.36-7.5-7.5-7.5z"></path>
<path d="M248.497 147c0-4.144-3.359-7.5-7.5-7.5h-71c-4.141 0-7.5 3.356-7.5 7.5s3.359 7.5 7.5 7.5h71c4.141 0 7.5-3.356 7.5-7.5z"></path>
<path d="M341.997 139.5h-71c-4.14 0-7.5 3.356-7.5 7.5s3.36 7.5 7.5 7.5h71c4.14 0 7.5-3.356 7.5-7.5s-3.36-7.5-7.5-7.5z"></path>
<path d="M308.997 169.5h-101c-4.141 0-7.5 3.356-7.5 7.5s3.359 7.5 7.5 7.5h101c4.14 0 7.5-3.356 7.5-7.5s-3.36-7.5-7.5-7.5z"></path>
<path d="M142.997 268.5c-22.606 0-41 18.394-41 41s18.394 41 41 41 41-18.394 41-41-18.394-41-41-41zM142.997 335.5c-14.336 0-26-11.664-26-26s11.664-26 26-26 26 11.664 26 26-11.664 26-26 26z"></path>
<path d="M116.997 365.5c-4.141 0-7.5 3.356-7.5 7.5s3.359 7.5 7.5 7.5h52c4.141 0 7.5-3.356 7.5-7.5s-3.359-7.5-7.5-7.5z"></path>
<path d="M255.997 268.5c-22.606 0-41 18.394-41 41s18.394 41 41 41 41-18.394 41-41-18.394-41-41-41zM255.997 335.5c-14.336 0-26-11.664-26-26s11.664-26 26-26 26 11.664 26 26-11.664 26-26 26z"></path>
<path d="M289.497 373c0-4.144-3.36-7.5-7.5-7.5h-52c-4.141 0-7.5 3.356-7.5 7.5s3.359 7.5 7.5 7.5h52c4.14 0 7.5-3.356 7.5-7.5z"></path>
<path d="M368.997 268.5c-22.606 0-41 18.394-41 41s18.394 41 41 41 41-18.394 41-41-18.394-41-41-41zM368.997 335.5c-14.336 0-26-11.664-26-26s11.664-26 26-26 26 11.664 26 26-11.664 26-26 26z"></path>
<path d="M342.997 365.5c-4.14 0-7.5 3.356-7.5 7.5s3.36 7.5 7.5 7.5h52c4.14 0 7.5-3.356 7.5-7.5s-3.36-7.5-7.5-7.5z"></path>
<path d="M100.997 469.5c0 6.894 5.606 12.5 12.5 12.5h117c6.894 0 12.5-5.606 12.5-12.5v-57c0-6.894-5.606-12.5-12.5-12.5h-117c-6.894 0-12.5 5.606-12.5 12.5zM154.849 467l11.84-11.84c2.926-2.926 7.684-2.922 10.609 0l11.84 11.84zM115.997 415h112v52h-17.649l-22.446-22.445c-8.774-8.774-23.047-8.774-31.821 0l-22.449 22.445h-17.636z"></path>
<path d="M268.997 412.5v57c0 6.894 5.606 12.5 12.5 12.5h117c6.894 0 12.5-5.606 12.5-12.5v-57c0-6.894-5.606-12.5-12.5-12.5h-117c-6.894 0-12.5 5.606-12.5 12.5zM322.849 467l11.84-11.84c2.926-2.926 7.683-2.922 10.61 0l11.84 11.84zM283.997 415h112v52h-17.649l-22.445-22.445c-8.774-8.774-23.047-8.774-31.82 0l-22.449 22.445h-17.637z"></path>
</svg>
