<!-- Generated by IcoMoon.io -->
<svg version="1.1" xmlns="http://www.w3.org/2000/svg" width="512" height="512" viewBox="0 0 512 512">
<title></title>
<g id="icomoon-ignore">
</g>
<path d="M27.557 463.505v35.703c0 7.051 5.735 12.789 12.785 12.789h83.7c7.051 0 12.785-5.738 12.785-12.789v-35.703c0-17.058-11.195-31.547-26.625-36.515 5.176-6.274 8.293-14.313 8.293-23.067 0-17.433-12.356-32.031-28.766-35.508v-24.785c0-0.414 0.336-0.75 0.746-0.75h157.988v25.535c-16.41 3.476-28.762 18.074-28.762 35.508 0 8.754 3.113 16.793 8.289 23.070-15.426 4.965-26.625 19.453-26.625 36.512v35.703c0 7.051 5.738 12.789 12.789 12.789h83.695c7.051 0 12.785-5.738 12.785-12.789v-6.578c0-4.164-3.371-7.539-7.535-7.539s-7.539 3.375-7.539 7.539v4.289h-8.617v-34.519c0-4.164-3.375-7.539-7.539-7.539s-7.535 3.375-7.535 7.539v34.519h-31.734v-34.519c0-4.164-3.371-7.539-7.535-7.539s-7.539 3.375-7.539 7.539v34.519h-8.617v-33.414c0-12.836 10.441-23.281 23.281-23.281h32.554c11.043 0 20.644 7.871 22.828 18.719 0.82 4.078 4.793 6.723 8.875 5.899 4.082-0.817 6.723-4.793 5.902-8.875-2.789-13.867-12.957-24.781-25.883-28.965 5.183-6.277 8.301-14.32 8.301-23.078 0-17.433-12.351-32.031-28.762-35.512v-25.531h157.988c0.41 0 0.746 0.336 0.746 0.746v24.785c-16.414 3.481-28.765 18.078-28.765 35.512 0 8.75 3.113 16.793 8.293 23.067-15.43 4.969-26.625 19.457-26.625 36.516v35.703c0 7.051 5.735 12.789 12.785 12.789h83.695c7.051 0 12.789-5.738 12.789-12.789v-35.703c0-17.058-11.199-31.547-26.625-36.515 5.176-6.274 8.289-14.313 8.289-23.067 0-17.433-12.351-32.031-28.762-35.512v-24.781c0-8.726-7.098-15.824-15.82-15.824h-157.993v-25.137h95.281c10.14 0 18.39-8.25 18.39-18.39v-54.938c0-31.832-27.32-43.43-28.485-43.906-0.047-0.019-0.098-0.039-0.144-0.059l-59.57-23.071v-11.496c9.235-7.535 15.746-18.281 17.828-30.516 12.469-1.886 20.84-12.234 20.84-23.918 0-5.523-1.89-10.813-5.274-15.051v-18.063c0-29.168-18.738-54.457-46.625-62.938-3.973-1.211-8.192 1.035-9.402 5.019-1.211 3.981 1.035 8.191 5.019 9.402 21.492 6.535 35.93 26.032 35.93 48.516v8.176c-0.512-2.281-2.207-4.305-4.313-6.66-1.848-2.071-6.399-6.867-12.188-13.090-1.692-1.821-3.922-3.059-6.469-3.5-2.781-0.48-5.726 0.059-8.246 1.703-2.418 1.582-4.914 3.039-7.465 4.395-15.778 8.395-33.809 12.465-50.609 11.262-4.961-0.379-9.582 2.492-11.488 7.082-0.215 0.039-0.426 0.078-0.637 0.121v-9.489c0-21.953 14.008-41.309 34.856-48.168 3.957-1.301 6.106-5.559 4.804-9.515-1.301-3.953-5.563-6.101-9.512-4.804-27.051 8.899-45.222 34.008-45.222 62.489v18.539c-3.422 4.18-5.274 9.231-5.274 14.574 0 11.847 8.606 22.137 20.824 23.942 2.137 12.742 9.012 23.722 18.871 31.234v10.758l-59.504 23.071c-0.047 0.016-0.094 0.035-0.144 0.054-0.071 0.031-0.246 0.106-0.512 0.222-3.957 1.785-27.972 13.844-27.972 43.684v54.938c0 10.14 8.25 18.39 18.391 18.39h92.946v25.137h-157.988c-8.727 0-15.82 7.098-15.82 15.824v24.785c-16.41 3.476-28.766 18.074-28.766 35.508 0 8.754 3.114 16.793 8.293 23.070-15.429 4.965-26.625 19.453-26.625 36.512zM277.229 403.923c0 11.703-9.524 21.226-21.226 21.226-11.707 0-21.226-9.524-21.226-21.226s9.519-21.226 21.226-21.226c11.703 0 21.226 9.524 21.226 21.226zM469.374 463.505v33.418h-8.621v-34.524c0-4.164-3.375-7.539-7.539-7.539-4.16 0-7.535 3.375-7.535 7.539v34.524h-31.731v-34.524c0-4.164-3.375-7.539-7.539-7.539s-7.535 3.375-7.535 7.539v34.524h-8.621v-33.418c0-12.836 10.445-23.281 23.281-23.281h32.558c12.836 0 23.281 10.445 23.281 23.281zM451.038 403.923c0 11.703-9.519 21.226-21.226 21.226-11.703 0-21.226-9.524-21.226-21.226s9.524-21.226 21.226-21.226c11.707 0 21.226 9.524 21.226 21.226zM257.241 147.066c-22.301 0-36.492-17.367-36.492-35.254v-31.035c21.094 0.672 42.941-5.516 61.063-16.653 5.699 6.109 9.106 9.683 10.683 11.477v36.211c0 19.289-15.723 35.254-35.254 35.254zM307.57 104.492v-16.211c3.149 1.582 5.031 4.703 5.031 8.094 0 3.359-1.851 6.528-5.031 8.117zM200.639 96.375c0-3.266 2.133-6.031 5.035-7.641v15.758c-3.153-1.57-5.035-4.722-5.035-8.117zM257.241 162.141c5.762 0 11.547-1.031 16.695-2.847v4.207c0 4.742 2.582 9.133 6.601 11.5-13.348 13.297-34.054 13.375-47.488 0.347 4.41-2.336 7.285-6.996 7.285-12.059v-3.781c5.34 1.734 11.207 2.633 16.907 2.633zM152.206 284.277v-54.934c0-21.289 17.929-29.441 19.102-29.95 51.019-19.781 26.274-10.188 46.609-18.071l2.976 3.164c19.629 20.851 51.832 20.851 71.457-0.004l3.254-3.457c30.125 11.664 19.726 7.637 47.43 18.367 10.68 4.625 19.101 16.199 19.101 29.95v54.933c0 1.828-1.488 3.317-3.317 3.317h-22.137v-48.922c0-4.164-3.375-7.535-7.539-7.535s-7.535 3.371-7.535 7.535v48.922h-128.875v-48.922c0-4.164-3.371-7.535-7.535-7.535s-7.539 3.371-7.539 7.535v48.922h-22.137c-1.828 0-3.316-1.488-3.316-3.317zM82.19 382.696c11.707 0 21.227 9.524 21.227 21.226s-9.52 21.226-21.227 21.226c-11.703 0-21.227-9.524-21.227-21.226s9.523-21.226 21.227-21.226zM42.632 463.505c0-12.836 10.445-23.281 23.282-23.281h32.559c12.836 0 23.281 10.445 23.281 23.281v33.418h-8.621v-34.524c0-4.164-3.375-7.539-7.535-7.539-4.164 0-7.539 3.375-7.539 7.539v34.524h-31.731v-34.524c0-4.164-3.375-7.539-7.539-7.539s-7.535 3.375-7.535 7.539v34.524h-8.621z"></path>
</svg>
