<!-- Generated by IcoMoon.io -->
<svg version="1.1" xmlns="http://www.w3.org/2000/svg" width="512" height="512" viewBox="0 0 512 512">
<title></title>
<g id="icomoon-ignore">
</g>
<path d="M202.506 271.274v34.801c0 7.004 5.699 12.703 12.703 12.703h81.575c7.004 0 12.703-5.699 12.703-12.703v-34.801c0-16.613-10.828-30.734-25.793-35.707 4.953-6.117 7.926-13.899 7.926-22.363 0-19.641-15.981-35.621-35.621-35.621-19.644 0-35.625 15.981-35.625 35.621 0 8.465 2.972 16.246 7.926 22.363-14.965 4.972-25.793 19.097-25.793 35.707zM255.994 192.758c11.278 0 20.449 9.172 20.449 20.446 0 11.226-9.117 20.449-20.465 20.449-11.266-0.012-20.429-9.179-20.429-20.449 0-11.274 9.172-20.446 20.446-20.446zM217.678 271.274c0-12.379 10.074-22.449 22.453-22.449h31.73c12.379 0 22.449 10.070 22.449 22.449v32.328h-7.918v-33.403c0-4.192-3.399-7.59-7.59-7.59s-7.586 3.399-7.586 7.59v33.403h-30.446v-33.403c0-4.192-3.394-7.59-7.586-7.59s-7.586 3.399-7.586 7.59v33.403h-7.922z"></path>
<path d="M202.506 87.785v23.508c0 7.004 5.699 12.703 12.703 12.703h81.575c7.004 0 12.703-5.699 12.703-12.703v-23.508c0-16.609-10.828-30.734-25.793-35.707 4.949-6.117 7.926-13.898 7.926-22.363 0-11.058-5.015-21.308-13.758-28.113-3.308-2.574-8.074-1.984-10.649 1.324s-1.981 8.074 1.324 10.649c5.027 3.91 7.906 9.797 7.906 16.14 0 11.258-9.149 20.449-20.457 20.449-11.269-0.004-20.438-9.176-20.438-20.449 0-5.98 2.613-11.645 7.176-15.543 3.184-2.723 3.559-7.511 0.836-10.699-2.722-3.183-7.512-3.558-10.699-0.836-7.934 6.785-12.488 16.657-12.488 27.078 0 8.465 2.972 16.246 7.926 22.367-14.965 4.969-25.793 19.094-25.793 35.703zM217.678 87.785c0-12.379 10.074-22.449 22.453-22.449 0.504 0 16.359 0 15.863 0h15.867c12.379 0 22.449 10.070 22.449 22.449v21.035h-7.918v-22.114c0-4.188-3.394-7.586-7.586-7.586s-7.59 3.398-7.59 7.586v22.114h-30.446v-22.114c0-4.188-3.394-7.586-7.586-7.586s-7.586 3.398-7.586 7.586v22.114h-7.922z"></path>
<path d="M371.67 188.328v23.504c0 7.004 5.699 12.703 12.703 12.703h81.575c7.004 0 12.703-5.699 12.703-12.703v-23.504c0-16.613-10.824-30.734-25.789-35.707 4.949-6.121 7.922-13.899 7.922-22.363 0-19.644-15.981-35.621-35.621-35.621s-35.621 15.981-35.621 35.621c0 8.465 2.973 16.242 7.922 22.363-14.965 4.972-25.793 19.094-25.793 35.707zM425.162 109.808c11.274 0 20.445 9.172 20.445 20.449 0 11.274-9.172 20.446-20.445 20.446-11.277 0-20.449-9.172-20.449-20.446 0-11.278 9.172-20.449 20.449-20.449zM386.846 188.328c0-12.379 10.070-22.449 22.449-22.449h31.731c12.379 0 22.449 10.071 22.449 22.449v21.035h-7.918v-22.113c0-4.188-3.394-7.586-7.586-7.586s-7.59 3.399-7.59 7.586v22.113h-30.445v-22.113c0-4.188-3.394-7.586-7.586-7.586s-7.586 3.399-7.586 7.586v22.113h-7.922v-21.035z"></path>
<path d="M33.342 188.328v23.504c0 7.004 5.699 12.703 12.703 12.703h81.575c7.004 0 12.703-5.699 12.703-12.703v-23.504c0-16.613-10.828-30.734-25.793-35.707 4.949-6.121 7.926-13.899 7.926-22.363 0-19.644-15.98-35.621-35.621-35.621-19.644 0-35.625 15.981-35.625 35.621 0 8.465 2.972 16.246 7.926 22.363-14.969 4.972-25.793 19.094-25.793 35.707zM86.829 109.808c11.278 0 20.449 9.172 20.449 20.449 0 11.274-9.172 20.446-20.449 20.446-11.273 0-20.445-9.172-20.445-20.446 0-11.278 9.172-20.449 20.445-20.449zM48.513 188.328c0-12.379 10.074-22.449 22.453-22.449h31.73c12.379 0 22.449 10.071 22.449 22.449v21.035h-7.918v-22.113c0-4.188-3.398-7.586-7.59-7.586s-7.586 3.399-7.586 7.586v22.113h-30.445v-22.113c0-4.188-3.394-7.586-7.586-7.586s-7.586 3.399-7.586 7.586v22.113h-7.922z"></path>
<path d="M371.67 388.356c0 7.008 5.699 12.707 12.703 12.707h81.575c7.004 0 12.703-5.699 12.703-12.707v-23.504c0-16.613-10.824-30.735-25.789-35.707 4.949-6.121 7.922-13.899 7.922-22.363 0-19.64-15.981-35.621-35.621-35.621s-35.621 15.981-35.621 35.621c0 8.465 2.973 16.242 7.922 22.363-14.965 4.973-25.793 19.094-25.793 35.707zM425.162 286.332c11.274 0 20.445 9.172 20.445 20.449 0 11.274-9.172 20.445-20.445 20.445-11.277 0-20.449-9.172-20.449-20.445 0-11.277 9.172-20.449 20.449-20.449zM386.846 364.852c0-12.379 10.070-22.449 22.449-22.449h31.731c12.379 0 22.449 10.070 22.449 22.449v21.035h-7.918v-22.113c0-4.192-3.394-7.586-7.586-7.586s-7.59 3.394-7.59 7.586v22.113h-30.445v-22.113c0-4.192-3.394-7.586-7.586-7.586s-7.586 3.394-7.586 7.586v22.113h-7.922v-21.035z"></path>
<path d="M33.342 388.356c0 7.008 5.699 12.707 12.703 12.707h81.575c7.004 0 12.703-5.699 12.703-12.707v-23.504c0-16.613-10.828-30.735-25.793-35.707 4.949-6.121 7.926-13.899 7.926-22.363 0-19.64-15.98-35.621-35.621-35.621-19.644 0-35.625 15.981-35.625 35.621 0 8.465 2.972 16.242 7.926 22.363-14.965 4.973-25.793 19.094-25.793 35.707zM86.829 286.332c11.278 0 20.449 9.172 20.449 20.449 0 11.274-9.172 20.445-20.449 20.445-11.273 0-20.445-9.172-20.445-20.445 0-11.277 9.172-20.449 20.445-20.449zM48.513 364.852c0-12.379 10.074-22.449 22.453-22.449h31.73c12.379 0 22.449 10.070 22.449 22.449v21.035h-7.918v-22.113c0-4.192-3.398-7.586-7.59-7.586s-7.586 3.394-7.586 7.586v22.113h-30.445v-22.113c0-4.192-3.394-7.586-7.586-7.586s-7.586 3.394-7.586 7.586v22.113h-7.922z"></path>
<path d="M147.658 315.594c2.097 3.633 6.738 4.871 10.363 2.777l13.722-7.922c17.039 24.93 44.844 41.95 76.664 44.297v15.813c0 4.192 3.399 7.586 7.586 7.586 4.192 0 7.59-3.394 7.59-7.586v-15.832c31.519-2.336 59.528-19.113 76.695-44.258l13.692 7.902c3.625 2.094 8.265 0.856 10.363-2.777 2.094-3.629 0.851-8.265-2.777-10.363l-13.668-7.89c3.781-7.851 6.606-16.285 8.293-25.176 0.781-4.117-1.922-8.086-6.039-8.867s-8.086 1.922-8.867 6.039c-7.668 40.41-43.231 70.519-85.281 70.519-47.867 0-86.808-38.942-86.808-86.808s38.941-86.813 86.808-86.813c31.625 0 59.894 17.101 75.078 43.207 0.035 0.066 0.067 0.133 0.106 0.199 0.024 0.039 0.051 0.074 0.074 0.113 4.726 8.207 8.18 17.281 10.024 27.004 0.781 4.117 4.75 6.824 8.867 6.039 4.117-0.778 6.82-4.75 6.039-8.867-1.683-8.891-4.512-17.324-8.293-25.176l13.668-7.891c3.629-2.097 4.871-6.738 2.777-10.363-2.094-3.633-6.738-4.871-10.363-2.778l-13.692 7.903c-17.168-25.144-45.176-41.922-76.695-44.258v-15.832c0-4.188-3.394-7.586-7.586-7.586s-7.59 3.398-7.59 7.586v15.809c-31.821 2.351-59.621 19.371-76.664 44.301l-13.722-7.922c-3.629-2.094-8.269-0.856-10.363 2.778-2.094 3.625-0.851 8.266 2.778 10.363l13.699 7.91c-13.481 27.852-13.528 60.597 0 88.551l-13.699 7.91c-3.629 2.094-4.875 6.735-2.778 10.36z"></path>
<path d="M202.506 475.793v23.5c0 7.008 5.699 12.707 12.703 12.707h81.575c7.004 0 12.703-5.699 12.703-12.707v-23.5c0-16.613-10.828-30.738-25.793-35.711 4.949-6.117 7.926-13.899 7.926-22.363 0-19.64-15.981-35.621-35.621-35.621-19.644 0-35.625 15.981-35.625 35.621 0 8.465 2.972 16.246 7.926 22.363-14.965 4.973-25.793 19.098-25.793 35.711zM255.994 397.27c11.278 0 20.449 9.176 20.449 20.449 0 11.277-9.172 20.449-20.449 20.449-11.274 0-20.446-9.172-20.446-20.449 0-11.274 9.172-20.449 20.446-20.449zM217.678 475.793c0-12.379 10.074-22.453 22.453-22.453h31.73c12.379 0 22.449 10.074 22.449 22.453v21.031h-7.918v-22.11c0-4.192-3.399-7.59-7.59-7.59s-7.586 3.399-7.586 7.59v22.11h-30.446v-22.11c0-4.192-3.394-7.59-7.586-7.59s-7.586 3.399-7.586 7.59v22.11h-7.922z"></path>
</svg>
