<!-- Generated by IcoMoon.io -->
<svg version="1.1" xmlns="http://www.w3.org/2000/svg" width="512" height="512" viewBox="0 0 512 512">
<title></title>
<g id="icomoon-ignore">
</g>
<path d="M505.424 344.151l-76.945-76.957c18.59-24.496 30.195-53.859 33.172-84.644 3.644-37.781-5.765-75.953-26.5-107.488-2.277-3.461-6.93-4.422-10.387-2.144-3.461 2.278-4.422 6.93-2.144 10.391 39.238 59.672 31.008 139.699-19.57 190.281-59.074 59.078-155.187 59.078-214.257 0-59.074-59.078-59.074-155.207 0-214.285 59.070-59.078 155.187-59.078 214.238-0.020l0.41 0.414c2.922 2.938 7.668 2.957 10.606 0.035 2.942-2.918 2.957-7.668 0.039-10.605l-0.43-0.434c-64.921-64.925-170.55-64.925-235.472 0-2.039 2.039-4.012 4.117-5.922 6.234h-164.762c-4.141 0-7.5 3.359-7.5 7.5v33.172c0 4.144 3.36 7.504 7.5 7.504 4.145 0 7.5-3.359 7.5-7.504v-25.668h145.23c-5.731 8.051-10.66 16.496-14.789 25.234h-93.441c-4.141 0-7.5 3.356-7.5 7.5s3.359 7.5 7.5 7.5h87.234c-2.153 6.023-3.946 12.144-5.383 18.336h-81.852c-4.141 0-7.5 3.356-7.5 7.5 0 4.141 3.359 7.5 7.5 7.5h79.078c-0.84 6.082-1.344 12.203-1.512 18.332h-77.567c-4.141 0-7.5 3.359-7.5 7.504 0 4.141 3.359 7.5 7.5 7.5h77.828c1.351 21.789 6.941 43.359 16.789 63.347h-12.613c-4.144 0-7.5 3.359-7.5 7.504v222.031c0 4.144 3.356 7.504 7.5 7.504h60c4.144 0 7.5-3.36 7.5-7.504v-166.097c6.754 4.652 13.774 8.754 21 12.297v153.8c0 4.144 3.359 7.504 7.5 7.504h60c4.144 0 7.5-3.36 7.5-7.504v-136.844c5.848-0.058 11.688-0.414 17.504-1.078v115.855c0 4.144 3.356 7.504 7.5 7.504 4.14 0 7.5-3.36 7.5-7.504v-118.269c23.707-4.922 46.539-15.039 66.656-30.356l76.93 76.942c4.254 4.25 9.906 6.594 15.914 6.594 6.012 0 11.664-2.344 15.914-6.594 8.769-8.765 8.774-23.039 0.004-31.82zM186.502 462.222h-45v-207.031h13.512c6.488 10.301 14.207 20.043 23.168 29.008 2.703 2.703 5.484 5.285 8.321 7.762zM237.506 462.222v-139.847c14.547 5.426 29.703 8.746 45 9.973v129.875zM494.818 365.363c-1.418 1.418-3.305 2.199-5.308 2.199s-3.89-0.781-5.305-2.199l-75.981-75.984c1.84-1.683 3.652-3.402 5.43-5.18 1.774-1.774 3.5-3.582 5.183-5.43l75.972 75.988c2.926 2.926 2.93 7.688 0.008 10.606z"></path>
<path d="M322.506 472.495c-4.14 0-7.5 3.356-7.5 7.5v17.004h-300.007v-368.89c0-4.144-3.355-7.5-7.5-7.5-4.141 0-7.5 3.356-7.5 7.5v376.39c0 4.144 3.36 7.5 7.5 7.5h315.007c4.144 0 7.5-3.356 7.5-7.5v-24.504c0-4.144-3.356-7.5-7.5-7.5z"></path>
<path d="M32.499 307.695v162.027c0 4.14 3.359 7.5 7.5 7.5h60.004c4.141 0 7.5-3.36 7.5-7.5v-162.027c0-4.14-3.359-7.5-7.5-7.5h-60.004c-4.141 0-7.5 3.36-7.5 7.5zM47.499 315.199h45.004v147.019h-45.004z"></path>
<path d="M108.081 210.183c4.144 0 7.5-3.359 7.5-7.504 0-4.141-3.356-7.5-7.5-7.5h-56.082c-4.141 0-7.5 3.359-7.5 7.5 0 4.144 3.359 7.504 7.5 7.504z"></path>
<path d="M295.921 29.988c-36.5 0-70.781 14.18-96.523 39.925s-39.922 60.031-39.922 96.535c0 36.504 14.179 70.789 39.922 96.535 25.746 25.746 60.023 39.925 96.523 39.925s70.777-14.18 96.523-39.925c25.742-25.746 39.918-60.031 39.918-96.535s-14.176-70.789-39.918-96.535c-25.746-25.746-60.024-39.925-96.523-39.925zM381.834 252.375c-22.91 22.914-53.422 35.531-85.914 35.531-32.496 0-63.004-12.617-85.914-35.531-22.914-22.914-35.531-53.429-35.531-85.925 0-32.5 12.617-63.016 35.531-85.93 23.684-23.688 54.8-35.535 85.914-35.535s62.231 11.847 85.914 35.535c22.91 22.914 35.527 53.43 35.527 85.93 0 32.496-12.617 63.012-35.528 85.925z"></path>
</svg>
