<!-- Generated by IcoMoon.io -->
<svg version="1.1" xmlns="http://www.w3.org/2000/svg" width="512" height="512" viewBox="0 0 512 512">
<title></title>
<g id="icomoon-ignore">
</g>
<path d="M32 168h-16v-32c0.026-22.081 17.919-39.975 39.998-40h272.002v-16h-16c0 0 0 0-0 0-4.418 0-8-3.582-8-8 0-2.209 0.896-4.21 2.344-5.657l48-48c1.447-1.448 3.448-2.344 5.657-2.344s4.209 0.896 5.657 2.344l48 48c1.448 1.448 2.344 3.448 2.344 5.657 0 4.418-3.582 8-8 8 0 0 0 0-0 0h-16v16h32c22.081 0.025 39.974 17.919 40 39.998v160.002h-16v-160c-0.016-13.249-10.752-23.984-23.998-24h-32.002v144h-16v-184c0-4.418 3.582-8 8-8v0h4.687l-28.687-28.687-28.687 28.687h4.687c4.418 0 8 3.582 8 8v0 192h-16v-152h-272c-13.248 0.016-23.984 10.751-24 23.999v0.001zM56 416h133.247l-19.2 64h-18.047v16h176v-16h-18.047l-10.29-34.3-15.326 4.6 8.911 29.7h-106.5l19.2-64h58.052v-16h-208c-13.248-0.016-23.984-10.752-24-23.998v-8.002h224v-16h-224v-168h-16v192c0.026 22.081 17.919 39.974 39.998 40h0.002zM296 280v-128h-32v184h-208v-16h32v-64c0-4.418 3.582-8 8-8v0h48c4.418 0 8 3.582 8 8v0 64h16v-120c0-4.418 3.582-8 8-8v0h48c4.418 0 8 3.582 8 8v0 120h16v-176c0-4.418 3.582-8 8-8v0h48c4.418 0 8 3.582 8 8v0 136zM136 264h-32v56h32zM216 208h-32v112h32zM56 128v16h16v-16zM104 128h-16v16h16zM120 128v16h16v-16zM488.967 455.033c4.329 4.351 7.012 10.344 7.033 16.963v0.004c0 0.007 0 0.014 0 0.022 0 13.243-10.736 23.978-23.978 23.978-0.007 0-0.015 0-0.023 0h0.001c-6.617-0.060-12.598-2.733-16.97-7.036l-38.29-38.289c-13.964 8.373-30.811 13.325-48.814 13.325-53.060 0-96.074-43.014-96.074-96.074s43.014-96.074 96.074-96.074c53.060 0 96.074 43.014 96.074 96.074 0 18.003-4.952 34.849-13.567 49.252l0.243-0.438zM448 368c0-44.183-35.817-80-80-80s-80 35.817-80 80c0 44.183 35.817 80 80 80v0c44.162-0.052 79.948-35.838 80-79.995v-0.005zM477.652 466.348l-36.387-36.389c-3.497 4.111-7.195 7.81-11.169 11.192l-0.137 0.114 36.389 36.387c1.459 1.535 3.517 2.49 5.796 2.49 4.414 0 7.993-3.579 7.993-7.993 0-2.28-0.955-4.337-2.486-5.793l-0.003-0.003zM432 368c0 35.346-28.654 64-64 64s-64-28.654-64-64c0-35.346 28.654-64 64-64v0c35.329 0.041 63.959 28.67 64 63.996v0.004zM416 368c0-26.51-21.49-48-48-48s-48 21.49-48 48c0 26.51 21.49 48 48 48v0c26.498-0.030 47.97-21.502 48-47.997v-0.003zM336 368h16c0.011-8.832 7.168-15.989 15.999-16h0.001v-16c-17.665 0.021-31.98 14.335-32 31.998v0.002zM440 64h16c-0.030-26.498-21.502-47.97-47.997-48h-0.003v16c17.665 0.020 31.98 14.335 32 31.998v0.002z"></path>
</svg>
