<!-- Generated by IcoMoon.io -->
<svg version="1.1" xmlns="http://www.w3.org/2000/svg" width="512" height="512" viewBox="0 0 512 512">
<title></title>
<g id="icomoon-ignore">
</g>
<path d="M504.495 477.471h-4.82v-147.509c0-4.144-3.359-7.5-7.5-7.5-4.144 0-7.504 3.356-7.504 7.5v147.509h-80.494v-325.001c0-2.766 2.25-5.015 5.015-5.015h70.464c2.769 0 5.020 2.25 5.020 5.015v142.489c0 4.144 3.356 7.5 7.5 7.5 4.14 0 7.5-3.356 7.5-7.5v-142.489c0-11.039-8.981-20.015-20.019-20.015h-70.464c-11.035 0-20.015 8.976-20.015 20.015v325.001h-15.12v-245.901c0-11.035-8.976-20.015-20.015-20.015h-17.731c-4.144 0-7.5 3.359-7.5 7.5 0 4.144 3.356 7.5 7.5 7.5h17.731c2.765 0 5.015 2.25 5.015 5.015v245.901h-80.494v-245.901c0-2.766 2.25-5.015 5.015-5.015h17.731c4.144 0 7.5-3.356 7.5-7.5 0-4.141-3.356-7.5-7.5-7.5h-17.731c-11.035 0-20.015 8.981-20.015 20.015v245.901h-15.12v-166.798c0-11.039-8.981-20.019-20.015-20.019h-70.464c-11.039 0-20.019 8.981-20.019 20.019v166.798h-15.12v-87.697c0-11.035-8.976-20.015-20.015-20.015h-70.464c-11.039 0-20.015 8.981-20.015 20.015v87.697h-4.824c-4.144 0-7.5 3.356-7.5 7.5s3.356 7.5 7.5 7.5h496.99c4.144 0 7.5-3.356 7.5-7.5s-3.359-7.5-7.5-7.5zM27.329 477.471v-87.697c0-2.765 2.25-5.015 5.015-5.015h70.464c2.766 0 5.015 2.25 5.015 5.015v87.697zM152.944 477.471v-166.798c0-2.769 2.25-5.020 5.020-5.020h70.464c2.766 0 5.015 2.25 5.015 5.020v166.798z"></path>
<path d="M50.719 297.678c5.403 8.179 16.445 10.433 24.617 5.035l346.688-228.948 3.719 5.633c5.422 8.215 17.859 6.953 21.527-2.175l16.070-39.995c3.18-7.913-2.543-16.585-11.070-16.77l-43.096-0.922c-0.090-0.003-0.176-0.003-0.265-0.003-9.723 0-15.543 10.844-10.187 18.945l3.719 5.636-346.684 228.948c-8.196 5.41-10.453 16.421-5.035 24.617zM64.019 285.576l352.942-233.081c1.659-1.097 2.817-2.809 3.216-4.758 0.402-1.949 0.009-3.977-1.086-5.633l-4.925-7.461 33.753 0.727-12.586 31.328-4.925-7.457c-2.286-3.457-6.937-4.41-10.394-2.129l-352.942 233.085c-1.273 0.84-2.992 0.488-3.837-0.785-0.844-1.277-0.489-2.991 0.785-3.837z"></path>
</svg>
