<svg width="512" height="512" viewBox="0 0 512 512" fill="none"
  xmlns="http://www.w3.org/2000/svg">
  <circle cx="256" cy="256" r="247.916" fill="#5F3FBE" stroke="white" stroke-width="15"/>
  <path d="M317.279 374.049C279.102 368.054 226.146 349.556 192.018 315.629L191.526 315.139C175.826 299.407 161.832 277.709 151.06 252.39C149.334 248.337 144.647 246.45 140.587 248.168C136.527 249.889 134.633 254.569 136.357 258.621C147.921 285.795 163.085 309.229 180.24 326.421L180.734 326.911C217.582 363.541 274.146 383.413 314.795 389.797C319.897 390.597 324.81 390.996 329.521 390.996C347.043 390.996 361.713 385.487 372.474 374.749C380.359 366.879 385.832 356.991 388.297 346.157C388.538 345.101 388.56 344.01 388.363 342.945L380.703 301.536C380.11 298.329 377.619 295.806 374.416 295.166L314.179 283.143C311.561 282.622 308.855 283.439 306.965 285.323L282.233 310.008C240.548 291.437 217.513 268.401 197.223 225.015L221.88 200.407C223.766 198.523 224.586 195.821 224.064 193.207L212.018 133.088C211.376 129.89 208.849 127.404 205.636 126.813L164.145 119.17C163.079 118.971 161.984 118.996 160.927 119.235C150.069 121.697 140.162 127.158 132.277 135.028C118.627 148.653 113.412 168.56 117.201 192.593C118.927 203.534 121.49 214.871 124.822 226.286C126.058 230.514 130.497 232.936 134.725 231.71C138.96 230.479 141.392 226.055 140.159 221.828C137.016 211.059 134.601 200.389 132.981 190.114C129.977 171.054 133.54 156.313 143.574 146.299C148.954 140.928 155.621 137.097 162.936 135.155L197.417 141.509L207.565 192.151L182.009 217.655C179.669 219.991 179.015 223.525 180.364 226.541C203.596 278.466 230.85 305.646 280.919 326.82C283.919 328.086 287.383 327.413 289.683 325.117L315.237 299.611L365.977 309.74L372.344 344.153C370.398 351.453 366.558 358.106 361.18 363.477C351.147 373.492 336.374 377.049 317.279 374.049Z" fill="white"/>
  <path d="M277.311 171.018C272.9 171.018 269.325 174.586 269.325 178.989C269.325 183.392 272.9 186.96 277.311 186.96C296.395 186.96 311.919 202.454 311.919 221.5C311.919 225.843 315.553 229.471 319.905 229.471C324.257 229.471 327.892 225.843 327.892 221.5C327.892 193.665 305.201 171.018 277.311 171.018Z" fill="white"/>
  <path d="M352.636 237.925C356.962 238.391 360.972 235.202 361.45 230.876C361.792 227.781 361.965 224.624 361.965 221.499C361.965 174.91 323.989 137.009 277.309 137.009C274.178 137.009 271.016 137.182 267.914 137.523C263.531 138.006 260.369 141.944 260.852 146.32C261.336 150.694 265.28 153.838 269.666 153.368C272.19 153.09 274.759 152.949 277.308 152.949C315.18 152.949 345.991 183.699 345.991 221.497C345.991 224.042 345.85 226.607 345.571 229.125C345.091 233.503 348.252 237.442 352.636 237.925Z" fill="white"/>
  <path d="M392.865 248.838C394.974 239.931 396.043 230.734 396.043 221.499C396.043 156.159 342.78 103 277.311 103C274.279 103 271.211 103.116 268.189 103.344C263.791 103.677 260.495 107.504 260.83 111.895C261.165 116.285 264.981 119.566 269.397 119.239C272.018 119.04 274.682 118.941 277.312 118.941C333.973 118.941 380.07 164.948 380.07 221.498C380.07 229.499 379.145 237.463 377.321 245.171C376.332 249.346 378.951 253.653 383.109 254.723C387.381 255.824 391.851 253.119 392.865 248.838Z" fill="white"/>
</svg>
